<?xml version="1.0" encoding="UTF-8" standalone="no"?>
<!DOCTYPE svg PUBLIC "-//W3C//DTD SVG 1.1//EN"
 "http://www.w3.org/Graphics/SVG/1.1/DTD/svg11.dtd">
<!-- Generated by graphviz version 2.49.3 (20211023.0002)
 -->
<!-- Pages: 1 -->
<svg width="530pt" height="260pt"
 viewBox="0.00 0.00 530.08 260.00" xmlns="http://www.w3.org/2000/svg" xmlns:xlink="http://www.w3.org/1999/xlink">
<g id="graph0" class="graph" transform="scale(1 1) rotate(0) translate(4 256)">
<polygon fill="white" stroke="transparent" points="-4,4 -4,-256 526.08,-256 526.08,4 -4,4"/>
<!-- [root] local_file.create&#45;a&#45;file (expand) -->
<g id="node1" class="node">
<title>[root] local_file.create&#45;a&#45;file (expand)</title>
<polygon fill="none" stroke="black" points="328.54,-108 193.54,-108 193.54,-72 328.54,-72 328.54,-108"/>
<text text-anchor="middle" x="261.04" y="-86.3" font-family="Times New Roman,serif" font-size="14.00">local_file.create&#45;a&#45;file</text>
</g>
<!-- [root] provider[&quot;registry.terraform.io/hashicorp/local&quot;] -->
<g id="node2" class="node">
<title>[root] provider[&quot;registry.terraform.io/hashicorp/local&quot;]</title>
<polygon fill="none" stroke="black" points="261.04,-36 -0.04,-18 261.04,0 522.12,-18 261.04,-36"/>
<text text-anchor="middle" x="261.04" y="-14.3" font-family="Times New Roman,serif" font-size="14.00">provider[&quot;registry.terraform.io/hashicorp/local&quot;]</text>
</g>
<!-- [root] local_file.create&#45;a&#45;file (expand)&#45;&gt;[root] provider[&quot;registry.terraform.io/hashicorp/local&quot;] -->
<g id="edge1" class="edge">
<title>[root] local_file.create&#45;a&#45;file (expand)&#45;&gt;[root] provider[&quot;registry.terraform.io/hashicorp/local&quot;]</title>
<path fill="none" stroke="black" d="M261.04,-71.7C261.04,-63.98 261.04,-54.71 261.04,-46.11"/>
<polygon fill="black" stroke="black" points="264.54,-46.1 261.04,-36.1 257.54,-46.1 264.54,-46.1"/>
</g>
<!-- [root] provider[&quot;registry.terraform.io/hashicorp/local&quot;] (close) -->
<g id="node3" class="node">
<title>[root] provider[&quot;registry.terraform.io/hashicorp/local&quot;] (close)</title>
<ellipse fill="none" stroke="black" cx="261.04" cy="-162" rx="235.06" ry="18"/>
<text text-anchor="middle" x="261.04" y="-158.3" font-family="Times New Roman,serif" font-size="14.00">[root] provider[&quot;registry.terraform.io/hashicorp/local&quot;] (close)</text>
</g>
<!-- [root] provider[&quot;registry.terraform.io/hashicorp/local&quot;] (close)&#45;&gt;[root] local_file.create&#45;a&#45;file (expand) -->
<g id="edge2" class="edge">
<title>[root] provider[&quot;registry.terraform.io/hashicorp/local&quot;] (close)&#45;&gt;[root] local_file.create&#45;a&#45;file (expand)</title>
<path fill="none" stroke="black" d="M261.04,-143.7C261.04,-135.98 261.04,-126.71 261.04,-118.11"/>
<polygon fill="black" stroke="black" points="264.54,-118.1 261.04,-108.1 257.54,-118.1 264.54,-118.1"/>
</g>
<!-- [root] root -->
<g id="node4" class="node">
<title>[root] root</title>
<ellipse fill="none" stroke="black" cx="261.04" cy="-234" rx="49.29" ry="18"/>
<text text-anchor="middle" x="261.04" y="-230.3" font-family="Times New Roman,serif" font-size="14.00">[root] root</text>
</g>
<!-- [root] root&#45;&gt;[root] provider[&quot;registry.terraform.io/hashicorp/local&quot;] (close) -->
<g id="edge3" class="edge">
<title>[root] root&#45;&gt;[root] provider[&quot;registry.terraform.io/hashicorp/local&quot;] (close)</title>
<path fill="none" stroke="black" d="M261.04,-215.7C261.04,-207.98 261.04,-198.71 261.04,-190.11"/>
<polygon fill="black" stroke="black" points="264.54,-190.1 261.04,-180.1 257.54,-190.1 264.54,-190.1"/>
</g>
</g>
</svg>
