<?xml version="1.0" encoding="UTF-8" standalone="no"?>
<!DOCTYPE svg PUBLIC "-//W3C//DTD SVG 1.1//EN"
 "http://www.w3.org/Graphics/SVG/1.1/DTD/svg11.dtd">
<!-- Generated by graphviz version 2.49.3 (20211023.0002)
 -->
<!-- Pages: 1 -->
<svg width="664pt" height="260pt"
 viewBox="0.00 0.00 664.32 260.00" xmlns="http://www.w3.org/2000/svg" xmlns:xlink="http://www.w3.org/1999/xlink">
<g id="graph0" class="graph" transform="scale(1 1) rotate(0) translate(4 256)">
<polygon fill="white" stroke="transparent" points="-4,4 -4,-256 660.32,-256 660.32,4 -4,4"/>
<!-- [root] local_file.games (expand) -->
<g id="node1" class="node">
<title>[root] local_file.games (expand)</title>
<polygon fill="none" stroke="black" points="474.04,-108 368.04,-108 368.04,-72 474.04,-72 474.04,-108"/>
<text text-anchor="middle" x="421.04" y="-86.3" font-family="Times New Roman,serif" font-size="14.00">local_file.games</text>
</g>
<!-- [root] provider[&quot;registry.terraform.io/hashicorp/local&quot;] -->
<g id="node2" class="node">
<title>[root] provider[&quot;registry.terraform.io/hashicorp/local&quot;]</title>
<polygon fill="none" stroke="black" points="261.04,-36 -0.04,-18 261.04,0 522.12,-18 261.04,-36"/>
<text text-anchor="middle" x="261.04" y="-14.3" font-family="Times New Roman,serif" font-size="14.00">provider[&quot;registry.terraform.io/hashicorp/local&quot;]</text>
</g>
<!-- [root] local_file.games (expand)&#45;&gt;[root] provider[&quot;registry.terraform.io/hashicorp/local&quot;] -->
<g id="edge1" class="edge">
<title>[root] local_file.games (expand)&#45;&gt;[root] provider[&quot;registry.terraform.io/hashicorp/local&quot;]</title>
<path fill="none" stroke="black" d="M381.9,-71.88C358.3,-61.55 328.21,-48.38 303.95,-37.77"/>
<polygon fill="black" stroke="black" points="305.2,-34.5 294.63,-33.7 302.39,-40.91 305.2,-34.5"/>
</g>
<!-- [root] var.filename -->
<g id="node3" class="node">
<title>[root] var.filename</title>
<polygon fill="none" stroke="black" points="617.54,-36 540.54,-36 540.54,0 623.54,0 623.54,-30 617.54,-36"/>
<polyline fill="none" stroke="black" points="617.54,-36 617.54,-30 "/>
<polyline fill="none" stroke="black" points="623.54,-30 617.54,-30 "/>
<text text-anchor="middle" x="582.04" y="-14.3" font-family="Times New Roman,serif" font-size="14.00">var.filename</text>
</g>
<!-- [root] local_file.games (expand)&#45;&gt;[root] var.filename -->
<g id="edge2" class="edge">
<title>[root] local_file.games (expand)&#45;&gt;[root] var.filename</title>
<path fill="none" stroke="black" d="M460.43,-71.88C482.44,-62.31 510.05,-50.3 533.4,-40.15"/>
<polygon fill="black" stroke="black" points="535.01,-43.27 542.78,-36.07 532.22,-36.85 535.01,-43.27"/>
</g>
<!-- [root] provider[&quot;registry.terraform.io/hashicorp/local&quot;] (close) -->
<g id="node4" class="node">
<title>[root] provider[&quot;registry.terraform.io/hashicorp/local&quot;] (close)</title>
<ellipse fill="none" stroke="black" cx="421.04" cy="-162" rx="235.06" ry="18"/>
<text text-anchor="middle" x="421.04" y="-158.3" font-family="Times New Roman,serif" font-size="14.00">[root] provider[&quot;registry.terraform.io/hashicorp/local&quot;] (close)</text>
</g>
<!-- [root] provider[&quot;registry.terraform.io/hashicorp/local&quot;] (close)&#45;&gt;[root] local_file.games (expand) -->
<g id="edge3" class="edge">
<title>[root] provider[&quot;registry.terraform.io/hashicorp/local&quot;] (close)&#45;&gt;[root] local_file.games (expand)</title>
<path fill="none" stroke="black" d="M421.04,-143.7C421.04,-135.98 421.04,-126.71 421.04,-118.11"/>
<polygon fill="black" stroke="black" points="424.54,-118.1 421.04,-108.1 417.54,-118.1 424.54,-118.1"/>
</g>
<!-- [root] root -->
<g id="node5" class="node">
<title>[root] root</title>
<ellipse fill="none" stroke="black" cx="421.04" cy="-234" rx="49.29" ry="18"/>
<text text-anchor="middle" x="421.04" y="-230.3" font-family="Times New Roman,serif" font-size="14.00">[root] root</text>
</g>
<!-- [root] root&#45;&gt;[root] provider[&quot;registry.terraform.io/hashicorp/local&quot;] (close) -->
<g id="edge4" class="edge">
<title>[root] root&#45;&gt;[root] provider[&quot;registry.terraform.io/hashicorp/local&quot;] (close)</title>
<path fill="none" stroke="black" d="M421.04,-215.7C421.04,-207.98 421.04,-198.71 421.04,-190.11"/>
<polygon fill="black" stroke="black" points="424.54,-190.1 421.04,-180.1 417.54,-190.1 424.54,-190.1"/>
</g>
</g>
</svg>
